<svg width="116" height="142" viewBox="0 0 116 142" fill="none" xmlns="http://www.w3.org/2000/svg">
<path d="M87.4895 26.92C87.4895 25.7055 88.4751 24.7168 89.6957 24.7168C90.9133 24.7168 91.902 25.7055 91.902 26.92C91.8959 29.1873 91.9447 31.5522 91.9935 33.9537C92.1949 43.7247 92.4055 54.0296 89.1282 63.175C84.1786 76.977 78.2099 86.7144 71.8047 92.3627C67.2885 96.348 62.5251 98.3467 57.7037 98.3559C52.8792 98.362 48.1128 96.3785 43.5935 92.4024C37.2097 86.7846 31.241 77.0746 26.2731 63.2727C22.95 54.0449 23.1636 43.7613 23.362 33.969C23.4108 31.5674 23.4627 29.1995 23.4566 26.92C23.4566 25.7055 24.4422 24.7168 25.6628 24.7168C26.8804 24.7168 27.8691 25.7055 27.8691 26.92C27.8721 29.2758 27.8263 31.6498 27.7745 34.0544C27.5822 43.4561 27.3808 53.3278 30.4262 61.7866C35.1256 74.844 40.664 83.9375 46.5168 89.0854C50.2122 92.3322 53.99 93.9556 57.7037 93.9495C61.4235 93.9434 65.1982 92.3169 68.8814 89.064C74.7281 83.907 80.2605 74.783 84.9567 61.6889C87.9747 53.2698 87.7733 43.3982 87.581 34.0392C87.5322 31.6346 87.4834 29.2666 87.4895 26.92Z" fill="#E9E9E9"/>
<path d="M41.2197 89.507C41.3936 88.3017 42.5105 87.4625 43.7219 87.6334C44.9303 87.8074 45.7695 88.9242 45.5986 90.1296L44.3658 98.6494L57.6795 117.517L70.9933 98.6494L69.7605 90.1418C69.5896 88.9364 70.4287 87.8165 71.6371 87.6456C72.8455 87.4747 73.9654 88.3139 74.1363 89.5193L75.4942 98.8904C75.5705 99.4275 75.4515 99.992 75.1128 100.471L59.5074 122.588C59.3609 122.802 59.1748 122.994 58.952 123.153C57.9511 123.855 56.5718 123.617 55.87 122.619L40.2584 100.492C39.935 100.047 39.7763 99.4794 39.8617 98.8904L41.2197 89.507Z" fill="#E9E9E9"/>
<mask id="mask0_321_5317" style="mask-type:luminance" maskUnits="userSpaceOnUse" x="0" y="94" width="116" height="48">
<path d="M0 94.9443H115.353V141.629H0V94.9443Z" fill="white"/>
</mask>
<g mask="url(#mask0_321_5317)">
<path d="M72.2781 99.3754C71.1308 98.9604 70.5388 97.6971 70.9538 96.5527C71.3718 95.4054 72.6382 94.8164 73.7856 95.2314C75.1923 95.7441 77.4443 96.5466 79.5895 97.3126C101.917 105.265 111.841 108.802 115.338 139.167C115.475 140.379 114.606 141.474 113.391 141.611C113.306 141.621 113.223 141.627 113.141 141.627V141.63H2.21845C0.991742 141.63 0 140.638 0 139.42C0 139.286 0.0122059 139.158 0.0335666 139.033C3.5245 108.991 13.6036 105.344 37.6557 96.6473C38.922 96.1896 40.2281 95.7166 41.5738 95.2253C42.7212 94.8103 43.9875 95.4023 44.4026 96.5466C44.8176 97.694 44.2256 98.9573 43.0782 99.3723C41.7325 99.8606 40.4264 100.337 39.1631 100.794C17.5737 108.6 8.15974 112.003 4.72374 137.208H110.636C107.194 111.838 98.0085 108.563 78.1035 101.475C76.5533 100.923 74.9299 100.343 72.2781 99.3754Z" fill="#E9E9E9"/>
</g>
<mask id="mask1_321_5317" style="mask-type:luminance" maskUnits="userSpaceOnUse" x="4" y="0" width="107" height="40">
<path d="M4.67773 0H110.919V39.6697H4.67773V0Z" fill="white"/>
</mask>
<g mask="url(#mask1_321_5317)">
<path d="M13.8908 19.5938L57.6708 34.5096L101.463 19.5938L57.6708 4.67805L13.8908 19.5938ZM56.9598 38.9313L6.33828 21.6841C5.70967 21.4705 5.18481 20.9792 4.9529 20.3018C4.5623 19.1483 5.18176 17.8942 6.33828 17.5036L56.9598 0.256413C57.4053 0.10689 57.9027 0.0946835 58.3818 0.256413L109.019 17.5036C109.647 17.7172 110.175 18.2085 110.404 18.8859C110.795 20.0394 110.175 21.2935 109.019 21.6841L58.3818 38.9313C57.9363 39.0808 57.4389 39.093 56.9598 38.9313Z" fill="#E9E9E9"/>
</g>
<path d="M6.09961 20.0122C6.09961 18.7915 7.09135 17.7998 8.31501 17.7998C9.53866 17.7998 10.5304 18.7915 10.5304 20.0122V52.0012C10.5304 53.2218 9.53866 54.2135 8.31501 54.2135C7.09135 54.2135 6.09961 53.2218 6.09961 52.0012V20.0122Z" fill="#E9E9E9"/>
<path d="M10.5884 67.3349L8.31501 59.7274L6.04163 67.3349H10.5884ZM10.4358 51.3693L15.6417 68.7935C15.7241 69.0315 15.7729 69.2848 15.7729 69.5472C15.7729 70.7678 14.7812 71.7565 13.5575 71.7565H3.07251C2.86501 71.7565 2.6514 71.726 2.44084 71.6619C1.26906 71.314 0.603834 70.0843 0.951707 68.9155L6.1881 51.3968C6.38645 50.695 6.92962 50.1091 7.68334 49.8863C8.85512 49.5384 10.0849 50.2037 10.4358 51.3693Z" fill="#E9E9E9"/>
<path d="M91.3287 43.3283C91.2463 43.4016 62.8673 68.4301 24.29 43.899L26.6611 40.1853C62.437 62.9374 88.3626 40.0632 88.4389 39.9961L91.3287 43.3283Z" fill="#E9E9E9"/>
</svg>
