<svg width="147" height="142" viewBox="0 0 147 142" fill="none" xmlns="http://www.w3.org/2000/svg">
<mask id="mask0_321_5333" style="mask-type:luminance" maskUnits="userSpaceOnUse" x="0" y="0" width="147" height="142">
<path d="M0 0H146.47V141.336H0V0Z" fill="white"/>
</mask>
<g mask="url(#mask0_321_5333)">
<path d="M144.58 83.3084C143.193 80.9894 137.499 74.1114 122.458 82.8701L95.9325 98.3273C94.5935 99.1064 93.2331 99.6542 91.8118 99.9799C92.3444 99.1399 92.7583 98.1843 93.0414 97.1282C94.3956 92.0671 91.3919 86.7869 86.1999 85.104C86.0995 85.0705 85.996 85.0461 85.8925 85.0248C78.2659 83.6492 70.7427 80.9285 64.6956 78.7434C62.5957 77.9825 60.6114 77.2643 58.9254 76.7195C52.1326 74.5131 45.9942 77.243 40.8905 80.2011L21.1513 91.6411L19.721 89.1121C18.8993 87.6634 17.5602 86.6196 15.9472 86.1722C14.3373 85.7248 12.6513 85.9287 11.1996 86.7504L3.75859 90.9624C0.757851 92.6636 -0.301235 96.4861 1.39695 99.4868L23.2786 138.162C24.0973 139.61 25.4364 140.657 27.0493 141.105C27.6063 141.257 28.1723 141.336 28.7354 141.336C29.8005 141.336 30.8505 141.062 31.797 140.523L39.241 136.311C42.2418 134.613 43.3008 130.788 41.6026 127.787L38.9062 123.021L43.4134 120.416L77.3924 129.525C79.3098 130.039 81.1905 130.295 83.0348 130.295C86.7081 130.295 90.2202 129.275 93.5222 127.239L141.662 97.5878C146.047 94.8883 147.438 88.0804 144.58 83.3084ZM36.9281 132.224L29.4871 136.439C29.128 136.64 28.708 136.692 28.3032 136.579C27.8984 136.467 27.5637 136.208 27.3628 135.849L5.48113 97.1739C5.06419 96.4404 5.33505 95.4666 6.0685 95.0496L13.5125 90.8346C13.7469 90.7037 14.0056 90.6368 14.2703 90.6368C14.4103 90.6368 14.5534 90.655 14.6964 90.6946C15.0981 90.8072 15.4329 91.0659 15.6368 91.425L37.5185 130.1C37.9354 130.836 37.6646 131.807 36.9281 132.224ZM139.203 93.5919L91.0632 123.243C87.2438 125.596 83.0531 126.183 78.6067 124.99L43.6904 115.632C43.0878 115.471 42.4487 115.556 41.907 115.866L36.5933 118.934L23.4643 95.7253L43.243 84.264C47.665 81.7015 52.4492 79.5529 57.4768 81.1841C59.0897 81.7076 60.9462 82.3802 63.1009 83.1562C69.2667 85.387 76.9359 88.1595 84.8882 89.6142C87.6637 90.585 89.2159 93.2693 88.5098 95.9139C87.5877 99.3499 84.6965 99.7729 82.3957 99.5081C78.2537 98.6743 74.4891 97.6091 70.554 96.4922C68.7919 95.99 66.969 95.4757 65.0547 94.9614C63.8039 94.6266 62.5166 95.3692 62.1787 96.62C61.844 97.8739 62.5865 99.1612 63.8404 99.496C65.7212 100.001 67.5289 100.512 69.2728 101.009C73.3296 102.159 77.2068 103.258 81.5436 104.125C81.5527 104.128 81.5618 104.128 81.571 104.131C82.6544 104.347 83.7683 104.548 84.9186 104.734C89.8489 105.522 94.2252 104.755 98.2942 102.384L124.82 86.9269C132.462 82.4776 138.345 82.0271 140.554 85.7218C142.079 88.266 141.397 92.2406 139.203 93.5919ZM15.2381 97.5391C15.4511 98.9908 14.4438 100.342 12.9921 100.552C11.5404 100.765 10.1922 99.7607 9.9792 98.3091C9.76617 96.8543 10.7705 95.5061 12.2252 95.2931C13.6769 95.0801 15.0251 96.0874 15.2381 97.5391ZM62.6992 58.6329L93.9604 76.6861C94.3226 76.896 94.7274 76.9995 95.1321 76.9995C95.5369 76.9995 95.9417 76.896 96.3069 76.6861L127.565 58.6329C128.292 58.2129 128.74 57.4369 128.74 56.6V20.4937C128.74 19.6537 128.292 18.8776 127.565 18.4607L96.3069 0.404501C95.5795 -0.0124378 94.6848 -0.0124378 93.9604 0.404501L62.6992 18.4607C61.9748 18.8776 61.5275 19.6537 61.5275 20.4937V56.6C61.5275 57.4369 61.9748 58.2129 62.6992 58.6329ZM66.2203 24.5565L72.6235 28.2572V41.1184C72.6235 41.9584 73.0709 42.7345 73.7952 43.1514L82.8613 48.389C83.2265 48.5959 83.6313 48.7025 84.0361 48.7025C84.4408 48.7025 84.8456 48.599 85.2078 48.389C85.9351 47.969 86.3825 47.193 86.3825 46.356V36.2034L92.7857 39.9011V70.5872L66.2203 55.2426V24.5565ZM95.1321 35.8352L88.7289 32.1375L115.294 16.7929L121.701 20.4937L95.1321 35.8352ZM77.3164 30.9658L81.6897 33.4918V42.2901L77.3164 39.7641V30.9658ZM84.0361 29.4259L79.6628 26.8999L106.231 11.5584L110.601 14.0844L84.0361 29.4259ZM97.4786 70.5872V39.9011L124.047 24.5565V55.2457L97.4786 70.5872ZM95.1321 5.14908L101.538 8.84675L74.9699 24.1913L68.5667 20.4937L95.1321 5.14908Z" fill="#E9E9E9"/>
</g>
</svg>
