<svg width="180" height="167" viewBox="0 0 180 167" fill="none" xmlns="http://www.w3.org/2000/svg">
<mask id="mask0_321_5292" style="mask-type:luminance" maskUnits="userSpaceOnUse" x="13" y="50" width="153" height="107">
<path d="M13.7109 50.6553H165.601V156.007H13.7109V50.6553Z" fill="white"/>
</mask>
<g mask="url(#mask0_321_5292)">
<path d="M163.118 151.351H160.785V105.926H163.118C163.301 105.926 163.485 105.905 163.666 105.863C163.843 105.818 164.015 105.755 164.18 105.671C164.346 105.586 164.496 105.484 164.638 105.364C164.776 105.243 164.902 105.111 165.011 104.96C165.116 104.81 165.206 104.65 165.276 104.479C165.345 104.307 165.396 104.133 165.423 103.949C165.45 103.766 165.456 103.585 165.441 103.398C165.426 103.215 165.387 103.037 165.33 102.863L160.665 88.8839C160.59 88.6522 160.479 88.4385 160.331 88.2429C160.187 88.0443 160.015 87.8757 159.816 87.7313C159.618 87.5898 159.404 87.4785 159.169 87.4032C158.938 87.328 158.697 87.2919 158.453 87.2919H121.139V76.81C121.139 76.4549 121.064 76.1178 120.91 75.8018C120.757 75.4828 120.54 75.212 120.263 74.9893L91.1138 51.6962C90.9061 51.5307 90.6774 51.4043 90.4276 51.317C90.1779 51.2297 89.9221 51.1846 89.6572 51.1846C89.3924 51.1846 89.1336 51.2297 88.8838 51.317C88.634 51.4043 88.4053 51.5307 88.2007 51.6962L59.0482 74.9893C58.7713 75.212 58.5576 75.4828 58.4041 75.8018C58.2506 76.1178 58.1724 76.4549 58.1724 76.81V87.2919H20.8583C20.6145 87.2919 20.3768 87.328 20.142 87.4032C19.9103 87.4785 19.6936 87.5898 19.495 87.7313C19.2964 87.8757 19.1248 88.0443 18.9804 88.2429C18.8359 88.4385 18.7246 88.6522 18.6463 88.8839L13.9817 102.863C13.9215 103.037 13.8854 103.215 13.8704 103.398C13.8553 103.585 13.8613 103.766 13.8884 103.949C13.9155 104.133 13.9636 104.307 14.0359 104.479C14.1051 104.65 14.1924 104.81 14.3007 104.96C14.409 105.111 14.5324 105.243 14.6739 105.364C14.8153 105.484 14.9658 105.586 15.1313 105.671C15.2968 105.755 15.4684 105.818 15.6459 105.863C15.8265 105.905 16.0101 105.926 16.1936 105.926H18.526V151.351H16.1936C15.8867 151.351 15.5888 151.411 15.3029 151.529C15.017 151.646 14.7642 151.814 14.5445 152.034C14.3278 152.251 14.1593 152.504 14.0389 152.789C13.9215 153.075 13.8613 153.373 13.8613 153.68C13.8613 153.99 13.9215 154.288 14.0389 154.571C14.1593 154.857 14.3278 155.11 14.5445 155.326C14.7642 155.546 15.017 155.715 15.3029 155.832C15.5888 155.952 15.8867 156.01 16.1936 156.01H163.118C163.428 156.01 163.726 155.952 164.009 155.832C164.294 155.715 164.547 155.546 164.767 155.326C164.987 155.11 165.155 154.857 165.273 154.571C165.39 154.288 165.45 153.99 165.45 153.68C165.45 153.373 165.39 153.075 165.273 152.789C165.155 152.504 164.987 152.251 164.767 152.034C164.547 151.814 164.294 151.646 164.009 151.529C163.726 151.411 163.428 151.351 163.118 151.351ZM156.774 91.9505L159.883 101.268H121.139V91.9505H156.774ZM22.5406 91.9505H58.1724V101.268H19.4318L22.5406 91.9505ZM23.1906 105.926H58.1724V151.351H23.1906V105.926ZM62.837 77.9295L89.6572 56.4962L116.474 77.9295V151.351H104.816V128.058C104.816 127.748 104.756 127.45 104.638 127.164C104.518 126.881 104.349 126.628 104.133 126.409C103.913 126.192 103.66 126.023 103.374 125.906C103.088 125.786 102.79 125.729 102.483 125.729H76.831C76.521 125.729 76.2231 125.786 75.9372 125.906C75.6513 126.023 75.3985 126.192 75.1818 126.409C74.9621 126.628 74.7936 126.881 74.6762 127.164C74.5558 127.45 74.4986 127.748 74.4986 128.058V151.351H62.837V77.9295ZM79.1603 130.387H87.3249V151.351H79.1603V130.387ZM91.9895 151.351V130.387H100.151V151.351H91.9895ZM121.139 151.351V105.926H156.121V151.351H121.139Z" fill="#E9E9E9"/>
</g>
<mask id="mask1_321_5292" style="mask-type:luminance" maskUnits="userSpaceOnUse" x="48" y="16" width="83" height="60">
<path d="M48.1904 16.2451H130.625V75.3085H48.1904V16.2451Z" fill="white"/>
</mask>
<g mask="url(#mask1_321_5292)">
<path d="M52.6328 74.1499L89.658 44.564L126.68 74.1499C126.921 74.3425 127.192 74.4809 127.487 74.5682C127.785 74.6554 128.086 74.6795 128.393 74.6464C128.703 74.6133 128.991 74.52 129.262 74.3726C129.533 74.2221 129.765 74.0265 129.957 73.7857C130.15 73.545 130.292 73.2771 130.376 72.9792C130.463 72.6843 130.487 72.3803 130.454 72.0733C130.421 71.7664 130.328 71.4775 130.18 71.2066C130.03 70.9358 129.834 70.704 129.593 70.5114L91.9903 40.4651V32.5503H108.314C108.624 32.5503 108.921 32.4901 109.207 32.3727C109.49 32.2554 109.743 32.0868 109.963 31.8671C110.182 31.6505 110.351 31.3977 110.468 31.1118C110.586 30.8259 110.646 30.531 110.646 30.221V18.5744C110.646 18.2645 110.586 17.9665 110.468 17.6836C110.351 17.3977 110.182 17.1449 109.963 16.9253C109.743 16.7086 109.493 16.54 109.207 16.4227C108.921 16.3023 108.624 16.2451 108.314 16.2451H89.658C89.348 16.2451 89.0501 16.3023 88.7642 16.4227C88.4783 16.54 88.2255 16.7086 88.0088 16.9253C87.7891 17.1449 87.6206 17.3977 87.5032 17.6836C87.3829 17.9665 87.3257 18.2645 87.3257 18.5744V40.4651L49.7197 70.5114C49.4789 70.704 49.2833 70.9358 49.1358 71.2066C48.9854 71.4775 48.8921 71.7664 48.859 72.0733C48.8259 72.3803 48.8499 72.6843 48.9372 72.9792C49.0245 73.2771 49.1629 73.545 49.3555 73.7857C49.5481 74.0265 49.7829 74.2221 50.0537 74.3726C50.3246 74.52 50.6135 74.6133 50.9204 74.6464C51.2274 74.6795 51.5283 74.6554 51.8263 74.5682C52.1242 74.4809 52.392 74.3425 52.6328 74.1499ZM105.981 27.8917H91.9903V20.9037H105.981V27.8917Z" fill="#E9E9E9"/>
</g>
<path d="M89.6573 105.927C90.19 105.927 90.7256 105.903 91.2553 105.849C91.788 105.797 92.3176 105.719 92.8413 105.614C93.3649 105.511 93.8826 105.379 94.3942 105.226C94.9058 105.069 95.4083 104.892 95.9049 104.687C96.3985 104.482 96.88 104.254 97.3524 104.001C97.8219 103.751 98.2824 103.477 98.7248 103.179C99.1702 102.884 99.6005 102.565 100.013 102.225C100.425 101.888 100.822 101.53 101.199 101.151C101.578 100.775 101.936 100.377 102.276 99.965C102.616 99.5527 102.932 99.1254 103.23 98.68C103.528 98.2376 103.802 97.7802 104.054 97.3077C104.307 96.8382 104.533 96.3537 104.738 95.8602C104.942 95.3666 105.123 94.867 105.279 94.3554C105.433 93.8438 105.562 93.3262 105.668 92.8026C105.773 92.2789 105.851 91.7523 105.902 91.2196C105.956 90.6869 105.981 90.1543 105.981 89.6216C105.981 89.0859 105.956 88.5532 105.902 88.0236C105.851 87.4909 105.773 86.9642 105.668 86.4406C105.562 85.917 105.433 85.3993 105.279 84.8877C105.123 84.3761 104.942 83.8735 104.738 83.38C104.533 82.8864 104.307 82.4049 104.054 81.9355C103.802 81.463 103.528 81.0055 103.23 80.5632C102.932 80.1178 102.616 79.6904 102.276 79.2781C101.936 78.8628 101.578 78.4686 101.199 78.0924C100.822 77.7132 100.425 77.3551 100.013 77.015C99.6005 76.678 99.1702 76.359 98.7248 76.064C98.2824 75.7661 97.8249 75.4922 97.3524 75.2394C96.88 74.9897 96.3985 74.7609 95.9049 74.5563C95.4083 74.3517 94.9058 74.1711 94.3942 74.0176C93.8826 73.8611 93.3649 73.7317 92.8413 73.6294C92.3176 73.5241 91.788 73.4458 91.2553 73.3947C90.7256 73.3405 90.19 73.3164 89.6573 73.3164C89.1216 73.3164 88.5889 73.3405 88.0563 73.3947C87.5236 73.4458 86.9969 73.5241 86.4703 73.6294C85.9466 73.7317 85.429 73.8611 84.9174 74.0176C84.4058 74.1711 83.9032 74.3517 83.4097 74.5563C82.9161 74.7609 82.4316 74.9897 81.9621 75.2394C81.4897 75.4922 81.0322 75.7661 80.5868 76.064C80.1414 76.359 79.7141 76.678 79.2988 77.018C78.8865 77.3551 78.4923 77.7132 78.1131 78.0924C77.7339 78.4686 77.3757 78.8628 77.0357 79.2781C76.6986 79.6904 76.3796 80.1178 76.0817 80.5632C75.7868 81.0055 75.5099 81.463 75.2601 81.9355C75.0073 82.4049 74.7786 82.8895 74.574 83.38C74.3693 83.8735 74.1887 84.3761 74.0353 84.8877C73.8788 85.3993 73.7494 85.917 73.644 86.4406C73.5417 86.9642 73.4635 87.4909 73.4093 88.0236C73.3581 88.5562 73.3311 89.0889 73.3311 89.6216C73.3311 90.1543 73.3581 90.6869 73.4123 91.2196C73.4635 91.7493 73.5447 92.2789 73.647 92.8026C73.7524 93.3262 73.8818 93.8408 74.0383 94.3524C74.1948 94.864 74.3753 95.3666 74.58 95.8602C74.7846 96.3507 75.0133 96.8352 75.2631 97.3047C75.5159 97.7742 75.7928 98.2316 76.0877 98.677C76.3856 99.1194 76.7046 99.5497 77.0417 99.962C77.3818 100.374 77.7399 100.769 78.1191 101.148C78.4953 101.524 78.8925 101.882 79.3048 102.222C79.7171 102.559 80.1474 102.878 80.5898 103.173C81.0352 103.471 81.4927 103.745 81.9652 103.998C82.4346 104.247 82.9191 104.476 83.4127 104.681C83.9062 104.885 84.4088 105.066 84.9204 105.223C85.432 105.376 85.9497 105.505 86.4733 105.611C86.9969 105.716 87.5236 105.794 88.0563 105.849C88.5889 105.9 89.1216 105.927 89.6573 105.927ZM89.6573 77.975C90.4217 77.975 91.1801 78.0503 91.9324 78.1977C92.6818 78.3482 93.4101 78.5679 94.1173 78.8598C94.8245 79.1547 95.4986 79.5129 96.1336 79.9372C96.7716 80.3615 97.3615 80.846 97.9002 81.3847C98.4419 81.9264 98.9264 82.5163 99.3507 83.1513C99.7781 83.7863 100.136 84.4574 100.428 85.1646C100.723 85.8718 100.943 86.6001 101.093 87.3494C101.241 88.0988 101.316 88.8572 101.316 89.6216C101.316 90.386 101.241 91.1444 101.093 91.8937C100.943 92.6431 100.723 93.3713 100.428 94.0786C100.136 94.7858 99.7781 95.4569 99.3507 96.0919C98.9264 96.7269 98.4419 97.3167 97.9002 97.8584C97.3615 98.3971 96.7716 98.8816 96.1336 99.306C95.4986 99.7303 94.8245 100.088 94.1173 100.383C93.4101 100.675 92.6818 100.895 91.9324 101.045C91.1801 101.193 90.4217 101.268 89.6573 101.268C88.8899 101.268 88.1315 101.193 87.3822 101.045C86.6298 100.895 85.9015 100.675 85.1943 100.383C84.4871 100.088 83.816 99.7303 83.178 99.306C82.54 98.8816 81.9531 98.3971 81.4114 97.8584C80.8697 97.3167 80.3852 96.7299 79.9609 96.0919C79.5365 95.4569 79.1754 94.7858 78.8835 94.0786C78.5916 93.3713 78.3689 92.6431 78.2184 91.8937C78.0709 91.1444 77.9957 90.386 77.9957 89.6216C77.9957 88.8572 78.0709 88.0988 78.2214 87.3494C78.3719 86.6001 78.5946 85.8718 78.8865 85.1676C79.1814 84.4604 79.5395 83.7893 79.9639 83.1543C80.3912 82.5193 80.8727 81.9294 81.4144 81.3907C81.9561 80.849 82.546 80.3675 83.181 79.9402C83.816 79.5159 84.4901 79.1577 85.1973 78.8658C85.9015 78.5709 86.6328 78.3512 87.3822 78.2007C88.1315 78.0503 88.8899 77.975 89.6573 77.975Z" fill="#E9E9E9"/>
<path d="M89.6575 91.9502H96.6515C96.9614 91.9502 97.2594 91.89 97.5453 91.7726C97.8312 91.6553 98.084 91.4867 98.3006 91.267C98.5203 91.0504 98.6889 90.7976 98.8062 90.5117C98.9266 90.2258 98.9838 89.9308 98.9838 89.6209C98.9838 89.3109 98.9266 89.016 98.8062 88.7301C98.6889 88.4442 98.5203 88.1914 98.3006 87.9747C98.084 87.755 97.8312 87.5865 97.5453 87.4691C97.2594 87.3518 96.9614 87.2916 96.6515 87.2916H91.9898V82.6329C91.9868 82.323 91.9296 82.028 91.8093 81.7421C91.6919 81.4562 91.5234 81.2065 91.3037 80.9868C91.087 80.7701 90.8342 80.6016 90.5483 80.4842C90.2624 80.3638 89.9645 80.3066 89.6575 80.3066C89.3475 80.3066 89.0496 80.3638 88.7637 80.4842C88.4778 80.6016 88.228 80.7701 88.0083 80.9868C87.7887 81.2065 87.6201 81.4562 87.5028 81.7421C87.3854 82.028 87.3252 82.323 87.3252 82.6329V89.6209C87.3252 89.9308 87.3824 90.2258 87.5028 90.5117C87.6201 90.7976 87.7887 91.0504 88.0083 91.267C88.225 91.4867 88.4778 91.6553 88.7637 91.7726C89.0496 91.89 89.3475 91.9502 89.6575 91.9502Z" fill="#E9E9E9"/>
<path d="M46.5114 115.244H34.8528C34.5429 115.244 34.2449 115.304 33.959 115.422C33.6731 115.542 33.4233 115.711 33.2037 115.927C32.984 116.147 32.8154 116.4 32.6981 116.683C32.5807 116.969 32.5205 117.266 32.5205 117.576V129.223C32.5205 129.53 32.5807 129.828 32.6981 130.114C32.8154 130.4 32.984 130.649 33.2037 130.869C33.4233 131.089 33.6731 131.257 33.959 131.375C34.2449 131.492 34.5429 131.552 34.8528 131.552H46.5114C46.8214 131.552 47.1193 131.492 47.4052 131.375C47.6911 131.257 47.9439 131.089 48.1606 130.869C48.3803 130.649 48.5488 130.4 48.6662 130.114C48.7866 129.828 48.8437 129.53 48.8437 129.223V117.576C48.8437 117.266 48.7866 116.969 48.6662 116.683C48.5488 116.397 48.3803 116.147 48.1606 115.927C47.9439 115.711 47.6911 115.542 47.4052 115.422C47.1193 115.304 46.8214 115.244 46.5114 115.244ZM44.1821 126.894H37.1851V119.906H44.1821V126.894Z" fill="#E9E9E9"/>
<path d="M144.463 115.244H132.801C132.491 115.244 132.193 115.304 131.907 115.422C131.621 115.542 131.372 115.711 131.152 115.927C130.932 116.147 130.764 116.397 130.646 116.683C130.529 116.969 130.469 117.266 130.469 117.576V129.223C130.469 129.53 130.529 129.828 130.646 130.114C130.764 130.4 130.932 130.649 131.152 130.869C131.372 131.089 131.621 131.257 131.907 131.375C132.193 131.492 132.491 131.552 132.801 131.552H144.463C144.77 131.552 145.068 131.492 145.353 131.375C145.639 131.257 145.892 131.089 146.109 130.869C146.329 130.649 146.497 130.4 146.614 130.114C146.735 129.828 146.792 129.53 146.792 129.223V117.576C146.792 117.266 146.735 116.969 146.614 116.683C146.497 116.397 146.329 116.147 146.109 115.927C145.892 115.711 145.639 115.542 145.353 115.422C145.068 115.304 144.77 115.244 144.463 115.244ZM142.13 126.894H135.133V119.906H142.13V126.894Z" fill="#E9E9E9"/>
</svg>
